<?xml version="1.0" encoding="UTF-8" standalone="no"?>
<!-- Created with Inkscape (http://www.inkscape.org/) -->

<svg
     xmlns:dc="http://purl.org/dc/elements/1.1/"
     xmlns:cc="http://creativecommons.org/ns#"
     xmlns:rdf="http://www.w3.org/1999/02/22-rdf-syntax-ns#"
     xmlns:svg="http://www.w3.org/2000/svg"
     xmlns="http://www.w3.org/2000/svg"
     xmlns:sodipodi="http://sodipodi.sourceforge.net/DTD/sodipodi-0.dtd"
     xmlns:inkscape="http://www.inkscape.org/namespaces/inkscape"
     width="365.58005"
     height="252.35951"
     id="svg3082"
     version="1.1"
     inkscape:version="0.48.5 r10040"
     sodipodi:docname="newCuteKitty.svg">
    <defs
         id="defs3084" />
    <sodipodi:namedview
         id="base"
         pagecolor="#ffffff"
         bordercolor="#666666"
         borderopacity="1.0"
         inkscape:pageopacity="0.0"
         inkscape:pageshadow="2"
         inkscape:zoom="1.55"
         inkscape:cx="132.1321"
         inkscape:cy="101.1187"
         inkscape:document-units="px"
         inkscape:current-layer="layer1"
         showgrid="false"
         fit-margin-top="0"
         fit-margin-left="0"
         fit-margin-right="0"
         fit-margin-bottom="0" />
    <metadata
         id="metadata3087">
        <rdf:RDF>
            <cc:Work
                 rdf:about="">
                <dc:format>image/svg+xml</dc:format>
                <dc:type
                     rdf:resource="http://purl.org/dc/dcmitype/StillImage" />
                <dc:title />
            </cc:Work>
        </rdf:RDF>
    </metadata>
    <g
         inkscape:label="Layer 1"
         inkscape:groupmode="layer"
         id="layer1"
         transform="translate(-202.89633,-383.31258)">
        <g
             id="g3800">
            <path
                 sodipodi:nodetypes="ccsc"
                 inkscape:connector-curvature="0"
                 id="path3972-4"
                 d="M 319.69516,509.99706 C 371.4344,504.05448 486.58027,672.97214 512.573,564.64298 512.573,564.64298 577.00026,529.51495 556.81971,586.69932 516.70565,700.36793 314.8489,532.32654 319.69516,509.99706 z"
                 style="fill:#e4deb0;fill-opacity:1;stroke:#746e55;stroke-width:3;stroke-linecap:butt;stroke-linejoin:miter;stroke-miterlimit:4;stroke-opacity:1;stroke-dasharray:none" />
            <path
                 transform="matrix(0.1456165,0.50642021,-0.48823191,0.16575022,820.61499,516.28882)"
                 d="M -8.363533,580.58313 A 84.015442,84.015442 0 1 1 -176.39442,580.58313 84.015442,84.015442 0 1 1 -8.363533,580.58313 z"
                 sodipodi:ry="84.015442"
                 sodipodi:rx="84.015442"
                 sodipodi:cy="580.58313"
                 sodipodi:cx="-92.378975"
                 id="path3970-1-2"
                 style="fill:#978e6e;fill-opacity:1;fill-rule:evenodd;stroke:#746e55;stroke-width:5.75873582;stroke-miterlimit:4;stroke-opacity:1;stroke-dasharray:none"
                 sodipodi:type="arc" />
            <path
                 sodipodi:nodetypes="csc"
                 inkscape:connector-curvature="0"
                 id="path3922-1-4"
                 d="M 309.47009,424.26968 C 309.47009,424.26968 276.75825,380.4764 258.88464,385.77993 244.97938,389.90592 225.78769,444.65505 232.55122,450.00615"
                 style="fill:#e4deb0;fill-opacity:1;stroke:#746e55;stroke-width:3;stroke-linecap:round;stroke-linejoin:miter;stroke-miterlimit:4;stroke-opacity:1;stroke-dasharray:none" />
            <path
                 style="fill:#e4deb0;fill-opacity:1;stroke:#746e55;stroke-width:3;stroke-linecap:round;stroke-linejoin:miter;stroke-miterlimit:4;stroke-opacity:1;stroke-dasharray:none"
                 d="M 343.57947,424.26968 C 343.57947,424.26968 376.29149,380.4764 394.16519,385.77993 408.07036,389.90592 427.26205,444.65505 420.49852,450.00615"
                 id="path3944"
                 inkscape:connector-curvature="0"
                 sodipodi:nodetypes="csc" />
            <path
                 inkscape:connector-curvature="0"
                 id="path3922-2-5-4"
                 d="M 297.5389,427.20006 C 297.5389,427.20006 273.46509,397.52382 263.6294,401.91345 253.79308,406.30307 238.0673,445.41492 242.60463,448.68853"
                 style="fill:#dbbaad;fill-opacity:1;stroke:none;stroke-width:3;stroke-miterlimit:4;stroke-dasharray:none" />
            <path
                 style="fill:#dbbaad;fill-opacity:1;stroke:none;stroke-width:3;stroke-miterlimit:4;stroke-dasharray:none"
                 d="M 353.01329,427.20006 C 353.01329,427.20006 377.0871,397.52382 386.92297,401.91345 396.7593,406.30307 412.48507,445.41492 407.94766,448.68853"
                 id="path3946"
                 inkscape:connector-curvature="0" />
            <path
                 inkscape:connector-curvature="0"
                 id="use3865"
                 d="M 324.54679,418.73855 C 275.53555,418.73855 234.76559,433.35208 224.37066,453.03952 212.50702,469.45489 204.90891,495.10204 204.90891,524.02186 L 204.90891,529.48504 C 204.90891,572.3887 221.66769,608.04489 244.21461,617.09105 263.01318,627.21349 291.9469,633.67571 324.54679,633.67571 L 330.81735,633.67571 C 362.95293,633.67571 391.53166,627.39528 410.34643,617.52029 410.37301,617.51067 410.39641,617.49097 410.42298,617.48128 433.45305,609.07514 450.6846,572.99507 450.6846,529.48504 L 450.6846,524.02186 C 450.6846,494.41004 442.69774,468.22126 430.34349,451.86884 430.32009,451.82956 430.2906,451.79101 430.26703,451.75178 418.80388,432.72021 378.7507,418.73855 330.81735,418.73855 L 324.54679,418.73855 z"
                 style="fill:#e4deb0;fill-opacity:1;fill-rule:evenodd;stroke:#746e55;stroke-width:3;stroke-miterlimit:4;stroke-opacity:1;stroke-dasharray:none" />
            <path
                 style="fill:none;stroke:#746e55;stroke-width:3;stroke-linecap:round;stroke-linejoin:round;stroke-miterlimit:4;stroke-opacity:1;stroke-dasharray:none"
                 d="M 305.96385,500.76958 C 305.96385,500.76958 299.09437,487.35688 307.68125,479.6517 316.26821,471.94655 329.76187,485.64461 329.51638,492.49367"
                 id="use3888"
                 inkscape:connector-curvature="0"
                 sodipodi:nodetypes="csc" />
            <path
                 style="fill:none;stroke:#746e55;stroke-width:3;stroke-linecap:round;stroke-linejoin:round;stroke-miterlimit:4;stroke-opacity:1;stroke-dasharray:none"
                 d="M 353.72591,501.5976 C 353.72591,501.5976 360.59548,488.1849 352.00851,480.47975 343.42164,472.77457 329.92798,486.47265 330.17329,493.32169"
                 id="use3890"
                 inkscape:connector-curvature="0"
                 sodipodi:nodetypes="csc" />
            <path
                 sodipodi:nodetypes="sscsccs"
                 inkscape:connector-curvature="0"
                 id="path3970-1-2-7"
                 d="M 290.89369,597.4713 C 288.51185,597.50811 286.07739,597.90351 283.6746,598.72002 281.77189,599.36659 280.00835,600.24569 278.3675,601.29553 278.40919,613.10459 287.97445,622.60193 299.82991,622.60193 305.42427,622.60193 310.49671,620.49547 314.30742,617.02168 314.16761,616.32136 318.99511,613.11322 318.79505,612.41699 315.68958,601.60656 301.21571,597.31178 290.89369,597.4713 z"
                 style="fill:#978e6e;fill-opacity:1;fill-rule:evenodd;stroke:none;stroke-width:3;stroke-miterlimit:4;stroke-dasharray:none" />
            <path
                 sodipodi:nodetypes="csssc"
                 style="fill:none;stroke:#746e55;stroke-width:3;stroke-linecap:round;stroke-linejoin:round;stroke-miterlimit:4;stroke-opacity:1;stroke-dasharray:none"
                 d="M 321.27776,575.77608 321.27776,601.23637 C 321.27776,613.08145 311.7124,622.61737 299.83101,622.61737 287.94943,622.61737 278.38417,613.08145 278.38417,601.23637 L 278.38417,575.77608"
                 id="use3894"
                 inkscape:connector-curvature="0" />
            <path
                 sodipodi:nodetypes="csssc"
                 style="fill:none;stroke:#746e55;stroke-width:3;stroke-linecap:round;stroke-linejoin:round;stroke-miterlimit:4;stroke-opacity:1;stroke-dasharray:none"
                 d="M 382.5109,575.65315 382.5109,601.11336 C 382.5109,612.95847 372.94573,622.49443 361.06406,622.49443 349.18257,622.49443 339.61731,612.95847 339.61731,601.11343 L 339.61731,575.65315"
                 id="use3896"
                 inkscape:connector-curvature="0" />
            <path
                 sodipodi:type="arc"
                 style="fill:#746e55;fill-opacity:1;fill-rule:evenodd;stroke:none;stroke-width:20.52094808000000015;stroke-opacity:1;stroke-miterlimit:4;stroke-dasharray:none"
                 id="use3892"
                 sodipodi:cx="-168.03088"
                 sodipodi:cy="441.0643"
                 sodipodi:rx="34.214436"
                 sodipodi:ry="33.454113"
                 d="M -133.81645,441.0643 A 34.214436,33.454113 0 1 1 -202.24532,441.0643 34.214436,33.454113 0 1 1 -133.81645,441.0643 z"
                 transform="matrix(0.14455859,0,0,0.14784402,337.75427,398.03038)" />
            <path
                 transform="matrix(0.1445586,0,0,0.14784403,372.31093,398.03038)"
                 d="M -133.81645,441.0643 A 34.214436,33.454113 0 1 1 -202.24532,441.0643 34.214436,33.454113 0 1 1 -133.81645,441.0643 z"
                 sodipodi:ry="33.454113"
                 sodipodi:rx="34.214436"
                 sodipodi:cy="441.0643"
                 sodipodi:cx="-168.03088"
                 id="use3898"
                 style="fill:#746e55;fill-opacity:1;fill-rule:evenodd;stroke:none;stroke-width:20.52094667000000072;stroke-opacity:1;stroke-miterlimit:4;stroke-dasharray:none"
                 sodipodi:type="arc" />
            <path
                 id="path3986"
                 d="M 208.85487,495.22309 C 207.21994,503.70288 206.32511,512.75997 206.24255,522.18854 224.78581,517.90181 257.66058,513.51937 257.14494,509.32041 257.30923,504.2592 226.46825,499.24603 208.85487,495.22309 z"
                 style="fill:#978e6e;fill-opacity:1;stroke:none;stroke-width:3;stroke-miterlimit:4;stroke-dasharray:none"
                 inkscape:connector-curvature="0" />
            <path
                 id="path3982"
                 d="M 206.20414,528.71863 206.20414,528.9491 C 206.20414,542.17497 207.84981,554.69902 210.8142,565.94017 236.62333,560.33175 277.64215,554.64156 276.96814,549.15398 277.20862,541.75251 229.01003,534.39545 206.20414,528.71863 z"
                 style="fill:#978e6e;fill-opacity:1;stroke:none;stroke-width:3;stroke-miterlimit:4;stroke-dasharray:none"
                 inkscape:connector-curvature="0" />
            <path
                 id="path3984"
                 d="M 446.84231,495.95292 C 429.05316,499.92483 399.69793,504.84392 399.85831,509.78136 399.35559,513.87337 430.5856,518.12243 449.33939,522.30377 449.2653,513.10895 448.39823,504.25384 446.84231,495.95292 z"
                 style="fill:#978e6e;fill-opacity:1;stroke:none;stroke-width:3;stroke-miterlimit:4;stroke-dasharray:none"
                 inkscape:connector-curvature="0" />
            <path
                 id="use3912"
                 d="M 449.33939,529.5637 C 425.99475,535.18674 379.79963,542.33109 380.03511,549.57651 379.37429,554.95803 418.82363,560.51427 444.69102,566.01699 447.61927,554.93101 449.28869,542.58768 449.33939,529.5637 z"
                 style="fill:#978e6e;fill-opacity:1;stroke:none;stroke-width:3;stroke-miterlimit:4;stroke-dasharray:none"
                 inkscape:connector-curvature="0" />
        </g>
    </g>
</svg>
